<mxfile host="65bd71144e">
    <diagram name="Page-1" id="tv_1hQJkHdqZI4EBZyVL">
        <mxGraphModel dx="1446" dy="1278" grid="1" gridSize="10" guides="1" tooltips="1" connect="1" arrows="1" fold="1" page="1" pageScale="1" pageWidth="850" pageHeight="1100" math="0" shadow="0">
            <root>
                <mxCell id="0"/>
                <mxCell id="1" parent="0"/>
                <mxCell id="Dx2BUCvLWsKzCXqUlLw3-6" value="" style="rounded=0;whiteSpace=wrap;html=1;" parent="1" vertex="1">
                    <mxGeometry x="1510" y="470" width="310" height="260" as="geometry"/>
                </mxCell>
                <mxCell id="hY3pxkbxS_bQR6AZCW12-1" value="" style="rounded=0;whiteSpace=wrap;html=1;" parent="1" vertex="1">
                    <mxGeometry x="70" y="80" width="270" height="160" as="geometry"/>
                </mxCell>
                <mxCell id="hY3pxkbxS_bQR6AZCW12-2" value="&amp;nbsp;Login&lt;div&gt;Email:&lt;br&gt;Password:&lt;/div&gt;" style="rounded=0;whiteSpace=wrap;html=1;" parent="1" vertex="1">
                    <mxGeometry x="140" y="102.5" width="120" height="60" as="geometry"/>
                </mxCell>
                <mxCell id="hY3pxkbxS_bQR6AZCW12-46" style="edgeStyle=orthogonalEdgeStyle;rounded=0;orthogonalLoop=1;jettySize=auto;html=1;" parent="1" source="hY3pxkbxS_bQR6AZCW12-3" edge="1">
                    <mxGeometry relative="1" as="geometry">
                        <mxPoint x="390" y="370" as="targetPoint"/>
                        <Array as="points">
                            <mxPoint x="525" y="310"/>
                            <mxPoint x="526" y="310"/>
                            <mxPoint x="526" y="370"/>
                        </Array>
                    </mxGeometry>
                </mxCell>
                <mxCell id="Dx2BUCvLWsKzCXqUlLw3-31" value="" style="edgeStyle=orthogonalEdgeStyle;rounded=0;orthogonalLoop=1;jettySize=auto;html=1;" parent="1" source="hY3pxkbxS_bQR6AZCW12-3" target="Dx2BUCvLWsKzCXqUlLw3-30" edge="1">
                    <mxGeometry relative="1" as="geometry"/>
                </mxCell>
                <mxCell id="hY3pxkbxS_bQR6AZCW12-3" value="" style="rounded=0;whiteSpace=wrap;html=1;" parent="1" vertex="1">
                    <mxGeometry x="390" y="30" width="220" height="220" as="geometry"/>
                </mxCell>
                <mxCell id="hY3pxkbxS_bQR6AZCW12-4" value="Signup Page" style="rounded=0;whiteSpace=wrap;html=1;" parent="1" vertex="1">
                    <mxGeometry x="450" y="40" width="100" height="20" as="geometry"/>
                </mxCell>
                <mxCell id="hY3pxkbxS_bQR6AZCW12-5" value="" style="rounded=0;whiteSpace=wrap;html=1;" parent="1" vertex="1">
                    <mxGeometry x="420" y="70" width="150" height="160" as="geometry"/>
                </mxCell>
                <mxCell id="hY3pxkbxS_bQR6AZCW12-7" value="" style="rounded=0;whiteSpace=wrap;html=1;" parent="1" vertex="1">
                    <mxGeometry x="250" y="490" width="370" height="260" as="geometry"/>
                </mxCell>
                <mxCell id="hY3pxkbxS_bQR6AZCW12-8" value="Barber Service" style="rounded=0;whiteSpace=wrap;html=1;" parent="1" vertex="1">
                    <mxGeometry x="345" y="520" width="120" height="30" as="geometry"/>
                </mxCell>
                <mxCell id="hY3pxkbxS_bQR6AZCW12-31" style="edgeStyle=orthogonalEdgeStyle;rounded=0;orthogonalLoop=1;jettySize=auto;html=1;" parent="1" source="hY3pxkbxS_bQR6AZCW12-24" target="hY3pxkbxS_bQR6AZCW12-7" edge="1">
                    <mxGeometry relative="1" as="geometry">
                        <Array as="points">
                            <mxPoint x="355" y="480"/>
                            <mxPoint x="355" y="480"/>
                        </Array>
                    </mxGeometry>
                </mxCell>
                <mxCell id="hY3pxkbxS_bQR6AZCW12-91" style="edgeStyle=orthogonalEdgeStyle;rounded=0;orthogonalLoop=1;jettySize=auto;html=1;exitX=0;exitY=0;exitDx=0;exitDy=67.5;exitPerimeter=0;" parent="1" source="hY3pxkbxS_bQR6AZCW12-24" edge="1">
                    <mxGeometry relative="1" as="geometry">
                        <mxPoint x="60" y="540.0000000000001" as="targetPoint"/>
                    </mxGeometry>
                </mxCell>
                <mxCell id="Dx2BUCvLWsKzCXqUlLw3-17" style="edgeStyle=orthogonalEdgeStyle;rounded=0;orthogonalLoop=1;jettySize=auto;html=1;exitX=0.855;exitY=1;exitDx=0;exitDy=-4.35;exitPerimeter=0;entryX=0.208;entryY=-0.003;entryDx=0;entryDy=0;entryPerimeter=0;" parent="1" source="hY3pxkbxS_bQR6AZCW12-24" target="Dx2BUCvLWsKzCXqUlLw3-16" edge="1">
                    <mxGeometry relative="1" as="geometry">
                        <mxPoint x="1260" y="470" as="targetPoint"/>
                        <Array as="points">
                            <mxPoint x="376" y="400"/>
                            <mxPoint x="1261" y="400"/>
                            <mxPoint x="1261" y="470"/>
                            <mxPoint x="1260" y="470"/>
                        </Array>
                    </mxGeometry>
                </mxCell>
                <mxCell id="Dx2BUCvLWsKzCXqUlLw3-21" style="edgeStyle=orthogonalEdgeStyle;rounded=0;orthogonalLoop=1;jettySize=auto;html=1;exitX=1;exitY=0;exitDx=0;exitDy=67.5;exitPerimeter=0;entryX=0;entryY=1;entryDx=0;entryDy=-15;entryPerimeter=0;" parent="1" source="hY3pxkbxS_bQR6AZCW12-24" target="Dx2BUCvLWsKzCXqUlLw3-4" edge="1">
                    <mxGeometry relative="1" as="geometry">
                        <mxPoint x="870" y="360" as="targetPoint"/>
                        <Array as="points">
                            <mxPoint x="628" y="378"/>
                            <mxPoint x="628" y="370"/>
                            <mxPoint x="870" y="370"/>
                            <mxPoint x="870" y="355"/>
                        </Array>
                    </mxGeometry>
                </mxCell>
                <mxCell id="hY3pxkbxS_bQR6AZCW12-24" value="SQL Database" style="shape=cylinder3;whiteSpace=wrap;html=1;boundedLbl=1;backgroundOutline=1;size=15;" parent="1" vertex="1">
                    <mxGeometry x="325" y="310" width="60" height="100" as="geometry"/>
                </mxCell>
                <mxCell id="hY3pxkbxS_bQR6AZCW12-25" style="edgeStyle=orthogonalEdgeStyle;rounded=0;orthogonalLoop=1;jettySize=auto;html=1;entryX=0;entryY=0;entryDx=0;entryDy=52.5;entryPerimeter=0;" parent="1" source="hY3pxkbxS_bQR6AZCW12-1" target="hY3pxkbxS_bQR6AZCW12-24" edge="1">
                    <mxGeometry relative="1" as="geometry"/>
                </mxCell>
                <mxCell id="hY3pxkbxS_bQR6AZCW12-27" value="Verifiy Data" style="text;html=1;align=center;verticalAlign=middle;resizable=0;points=[];autosize=1;strokeColor=none;fillColor=none;" parent="1" vertex="1">
                    <mxGeometry x="210" y="335" width="80" height="30" as="geometry"/>
                </mxCell>
                <mxCell id="hY3pxkbxS_bQR6AZCW12-29" value="New Entry" style="text;html=1;align=center;verticalAlign=middle;resizable=0;points=[];autosize=1;strokeColor=none;fillColor=none;" parent="1" vertex="1">
                    <mxGeometry x="425" y="335" width="80" height="30" as="geometry"/>
                </mxCell>
                <mxCell id="hY3pxkbxS_bQR6AZCW12-32" value="" style="rounded=0;whiteSpace=wrap;html=1;" parent="1" vertex="1">
                    <mxGeometry x="-260" y="80" width="270" height="160" as="geometry"/>
                </mxCell>
                <mxCell id="hY3pxkbxS_bQR6AZCW12-33" value="Who are you Page" style="rounded=0;whiteSpace=wrap;html=1;" parent="1" vertex="1">
                    <mxGeometry x="-200" y="100" width="120" height="25" as="geometry"/>
                </mxCell>
                <mxCell id="hY3pxkbxS_bQR6AZCW12-38" value="Local Vendor" style="rounded=0;whiteSpace=wrap;html=1;" parent="1" vertex="1">
                    <mxGeometry x="-200" y="137.5" width="130" height="25" as="geometry"/>
                </mxCell>
                <mxCell id="hY3pxkbxS_bQR6AZCW12-41" style="edgeStyle=orthogonalEdgeStyle;rounded=0;orthogonalLoop=1;jettySize=auto;html=1;" parent="1" source="hY3pxkbxS_bQR6AZCW12-39" edge="1">
                    <mxGeometry relative="1" as="geometry">
                        <mxPoint x="-60" y="640" as="targetPoint"/>
                        <Array as="points">
                            <mxPoint x="-140" y="425"/>
                            <mxPoint x="-139" y="425"/>
                        </Array>
                    </mxGeometry>
                </mxCell>
                <mxCell id="zxe9tG6tnXQUL3xIdXfx-1" style="edgeStyle=orthogonalEdgeStyle;rounded=0;orthogonalLoop=1;jettySize=auto;html=1;exitX=0.75;exitY=1;exitDx=0;exitDy=0;endArrow=classic;endFill=1;" parent="1" edge="1">
                    <mxGeometry relative="1" as="geometry">
                        <mxPoint x="320" y="370" as="targetPoint"/>
                        <mxPoint x="-110" y="210" as="sourcePoint"/>
                        <Array as="points">
                            <mxPoint x="-110" y="310"/>
                            <mxPoint x="-110" y="310"/>
                        </Array>
                    </mxGeometry>
                </mxCell>
                <mxCell id="hY3pxkbxS_bQR6AZCW12-39" value="Customer" style="rounded=0;whiteSpace=wrap;html=1;" parent="1" vertex="1">
                    <mxGeometry x="-200" y="180" width="120" height="30" as="geometry"/>
                </mxCell>
                <mxCell id="hY3pxkbxS_bQR6AZCW12-40" style="edgeStyle=orthogonalEdgeStyle;rounded=0;orthogonalLoop=1;jettySize=auto;html=1;entryX=0;entryY=0.438;entryDx=0;entryDy=0;entryPerimeter=0;" parent="1" source="hY3pxkbxS_bQR6AZCW12-38" target="hY3pxkbxS_bQR6AZCW12-1" edge="1">
                    <mxGeometry relative="1" as="geometry"/>
                </mxCell>
                <mxCell id="hY3pxkbxS_bQR6AZCW12-44" style="edgeStyle=orthogonalEdgeStyle;rounded=0;orthogonalLoop=1;jettySize=auto;html=1;entryX=0;entryY=0.353;entryDx=0;entryDy=0;entryPerimeter=0;" parent="1" source="hY3pxkbxS_bQR6AZCW12-43" target="hY3pxkbxS_bQR6AZCW12-3" edge="1">
                    <mxGeometry relative="1" as="geometry">
                        <mxPoint x="360" y="110" as="targetPoint"/>
                    </mxGeometry>
                </mxCell>
                <mxCell id="hY3pxkbxS_bQR6AZCW12-43" value="New Vendor" style="rounded=0;whiteSpace=wrap;html=1;" parent="1" vertex="1">
                    <mxGeometry x="150" y="190" width="100" height="20" as="geometry"/>
                </mxCell>
                <mxCell id="hY3pxkbxS_bQR6AZCW12-52" value="" style="shape=table;startSize=0;container=1;collapsible=0;childLayout=tableLayout;fontSize=16;" parent="1" vertex="1">
                    <mxGeometry x="275" y="570" width="320" height="50" as="geometry"/>
                </mxCell>
                <mxCell id="hY3pxkbxS_bQR6AZCW12-53" value="" style="shape=tableRow;horizontal=0;startSize=0;swimlaneHead=0;swimlaneBody=0;strokeColor=inherit;top=0;left=0;bottom=0;right=0;collapsible=0;dropTarget=0;fillColor=none;points=[[0,0.5],[1,0.5]];portConstraint=eastwest;fontSize=16;" parent="hY3pxkbxS_bQR6AZCW12-52" vertex="1">
                    <mxGeometry width="320" height="50" as="geometry"/>
                </mxCell>
                <mxCell id="hY3pxkbxS_bQR6AZCW12-70" value="&lt;font style=&quot;font-size: 10px;&quot;&gt;Vendor service&lt;/font&gt;" style="shape=partialRectangle;html=1;whiteSpace=wrap;connectable=0;strokeColor=inherit;overflow=hidden;fillColor=none;top=0;left=0;bottom=0;right=0;pointerEvents=1;fontSize=16;" parent="hY3pxkbxS_bQR6AZCW12-53" vertex="1">
                    <mxGeometry width="80" height="50" as="geometry">
                        <mxRectangle width="80" height="50" as="alternateBounds"/>
                    </mxGeometry>
                </mxCell>
                <mxCell id="hY3pxkbxS_bQR6AZCW12-83" value="&lt;font size=&quot;1&quot;&gt;rating&lt;/font&gt;" style="shape=partialRectangle;html=1;whiteSpace=wrap;connectable=0;strokeColor=inherit;overflow=hidden;fillColor=none;top=0;left=0;bottom=0;right=0;pointerEvents=1;fontSize=16;" parent="hY3pxkbxS_bQR6AZCW12-53" vertex="1">
                    <mxGeometry x="80" width="80" height="50" as="geometry">
                        <mxRectangle width="80" height="50" as="alternateBounds"/>
                    </mxGeometry>
                </mxCell>
                <mxCell id="hY3pxkbxS_bQR6AZCW12-84" value="&lt;font style=&quot;font-size: 10px;&quot;&gt;relative distance&lt;/font&gt;" style="shape=partialRectangle;html=1;whiteSpace=wrap;connectable=0;strokeColor=inherit;overflow=hidden;fillColor=none;top=0;left=0;bottom=0;right=0;pointerEvents=1;fontSize=16;" parent="hY3pxkbxS_bQR6AZCW12-53" vertex="1">
                    <mxGeometry x="160" width="80" height="50" as="geometry">
                        <mxRectangle width="80" height="50" as="alternateBounds"/>
                    </mxGeometry>
                </mxCell>
                <mxCell id="hY3pxkbxS_bQR6AZCW12-85" value="Address" style="shape=partialRectangle;html=1;whiteSpace=wrap;connectable=0;strokeColor=inherit;overflow=hidden;fillColor=none;top=0;left=0;bottom=0;right=0;pointerEvents=1;fontSize=16;" parent="hY3pxkbxS_bQR6AZCW12-53" vertex="1">
                    <mxGeometry x="240" width="80" height="50" as="geometry">
                        <mxRectangle width="80" height="50" as="alternateBounds"/>
                    </mxGeometry>
                </mxCell>
                <mxCell id="hY3pxkbxS_bQR6AZCW12-87" value="Sevices name" style="whiteSpace=wrap;html=1;" parent="1" vertex="1">
                    <mxGeometry x="-40" y="550" width="220" height="175" as="geometry"/>
                </mxCell>
                <mxCell id="hY3pxkbxS_bQR6AZCW12-93" style="edgeStyle=orthogonalEdgeStyle;rounded=0;orthogonalLoop=1;jettySize=auto;html=1;exitX=0.5;exitY=0;exitDx=0;exitDy=0;" parent="1" source="hY3pxkbxS_bQR6AZCW12-88" edge="1">
                    <mxGeometry relative="1" as="geometry">
                        <mxPoint x="320" y="400" as="targetPoint"/>
                        <Array as="points">
                            <mxPoint x="130" y="410"/>
                            <mxPoint x="130" y="410"/>
                        </Array>
                    </mxGeometry>
                </mxCell>
                <mxCell id="hY3pxkbxS_bQR6AZCW12-104" style="edgeStyle=elbowEdgeStyle;rounded=0;orthogonalLoop=1;jettySize=auto;html=1;exitX=1;exitY=0.5;exitDx=0;exitDy=0;entryX=0;entryY=0.538;entryDx=0;entryDy=0;entryPerimeter=0;" parent="1" target="hY3pxkbxS_bQR6AZCW12-7" edge="1">
                    <mxGeometry relative="1" as="geometry">
                        <mxPoint x="150" y="580.01" as="sourcePoint"/>
                        <mxPoint x="190" y="640.01" as="targetPoint"/>
                    </mxGeometry>
                </mxCell>
                <mxCell id="hY3pxkbxS_bQR6AZCW12-88" value="barber" style="whiteSpace=wrap;html=1;aspect=fixed;" parent="1" vertex="1">
                    <mxGeometry x="110" y="560" width="40" height="40" as="geometry"/>
                </mxCell>
                <mxCell id="hY3pxkbxS_bQR6AZCW12-89" value="" style="whiteSpace=wrap;html=1;aspect=fixed;" parent="1" vertex="1">
                    <mxGeometry x="-10" y="560" width="40" height="40" as="geometry"/>
                </mxCell>
                <mxCell id="hY3pxkbxS_bQR6AZCW12-90" value="Sallon" style="whiteSpace=wrap;html=1;aspect=fixed;" parent="1" vertex="1">
                    <mxGeometry x="50" y="560" width="40" height="40" as="geometry"/>
                </mxCell>
                <mxCell id="hY3pxkbxS_bQR6AZCW12-96" value="All barbers" style="text;html=1;align=center;verticalAlign=middle;resizable=0;points=[];autosize=1;strokeColor=none;fillColor=none;" parent="1" vertex="1">
                    <mxGeometry x="155" y="400" width="80" height="30" as="geometry"/>
                </mxCell>
                <mxCell id="hY3pxkbxS_bQR6AZCW12-98" value="" style="shape=table;startSize=0;container=1;collapsible=0;childLayout=tableLayout;fontSize=16;" parent="1" vertex="1">
                    <mxGeometry x="275" y="630" width="320" height="50" as="geometry"/>
                </mxCell>
                <mxCell id="hY3pxkbxS_bQR6AZCW12-99" value="" style="shape=tableRow;horizontal=0;startSize=0;swimlaneHead=0;swimlaneBody=0;strokeColor=inherit;top=0;left=0;bottom=0;right=0;collapsible=0;dropTarget=0;fillColor=none;points=[[0,0.5],[1,0.5]];portConstraint=eastwest;fontSize=16;" parent="hY3pxkbxS_bQR6AZCW12-98" vertex="1">
                    <mxGeometry width="320" height="50" as="geometry"/>
                </mxCell>
                <mxCell id="hY3pxkbxS_bQR6AZCW12-100" value="&lt;span style=&quot;font-size: 10px;&quot;&gt;barber&lt;/span&gt;" style="shape=partialRectangle;html=1;whiteSpace=wrap;connectable=0;strokeColor=inherit;overflow=hidden;fillColor=none;top=0;left=0;bottom=0;right=0;pointerEvents=1;fontSize=16;" parent="hY3pxkbxS_bQR6AZCW12-99" vertex="1">
                    <mxGeometry width="80" height="50" as="geometry">
                        <mxRectangle width="80" height="50" as="alternateBounds"/>
                    </mxGeometry>
                </mxCell>
                <mxCell id="hY3pxkbxS_bQR6AZCW12-101" value="&lt;font size=&quot;1&quot;&gt;rating&lt;/font&gt;" style="shape=partialRectangle;html=1;whiteSpace=wrap;connectable=0;strokeColor=inherit;overflow=hidden;fillColor=none;top=0;left=0;bottom=0;right=0;pointerEvents=1;fontSize=16;" parent="hY3pxkbxS_bQR6AZCW12-99" vertex="1">
                    <mxGeometry x="80" width="80" height="50" as="geometry">
                        <mxRectangle width="80" height="50" as="alternateBounds"/>
                    </mxGeometry>
                </mxCell>
                <mxCell id="hY3pxkbxS_bQR6AZCW12-102" value="&lt;font style=&quot;font-size: 10px;&quot;&gt;relative distance&lt;/font&gt;" style="shape=partialRectangle;html=1;whiteSpace=wrap;connectable=0;strokeColor=inherit;overflow=hidden;fillColor=none;top=0;left=0;bottom=0;right=0;pointerEvents=1;fontSize=16;" parent="hY3pxkbxS_bQR6AZCW12-99" vertex="1">
                    <mxGeometry x="160" width="80" height="50" as="geometry">
                        <mxRectangle width="80" height="50" as="alternateBounds"/>
                    </mxGeometry>
                </mxCell>
                <mxCell id="hY3pxkbxS_bQR6AZCW12-103" value="Address" style="shape=partialRectangle;html=1;whiteSpace=wrap;connectable=0;strokeColor=inherit;overflow=hidden;fillColor=none;top=0;left=0;bottom=0;right=0;pointerEvents=1;fontSize=16;" parent="hY3pxkbxS_bQR6AZCW12-99" vertex="1">
                    <mxGeometry x="240" width="80" height="50" as="geometry">
                        <mxRectangle width="80" height="50" as="alternateBounds"/>
                    </mxGeometry>
                </mxCell>
                <mxCell id="hY3pxkbxS_bQR6AZCW12-105" value="&lt;h1&gt;&lt;br&gt;&lt;/h1&gt;" style="rounded=0;whiteSpace=wrap;html=1;align=center;" parent="1" vertex="1">
                    <mxGeometry x="790" y="480" width="380" height="260" as="geometry"/>
                </mxCell>
                <mxCell id="hY3pxkbxS_bQR6AZCW12-106" style="edgeStyle=orthogonalEdgeStyle;rounded=0;orthogonalLoop=1;jettySize=auto;html=1;exitX=1;exitY=0.5;exitDx=0;exitDy=0;entryX=-0.008;entryY=0.671;entryDx=0;entryDy=0;entryPerimeter=0;" parent="1" source="hY3pxkbxS_bQR6AZCW12-99" target="hY3pxkbxS_bQR6AZCW12-105" edge="1">
                    <mxGeometry relative="1" as="geometry"/>
                </mxCell>
                <mxCell id="hY3pxkbxS_bQR6AZCW12-107" value="&lt;h1&gt;&lt;font style=&quot;font-size: 22px;&quot;&gt;Barber&lt;/font&gt;&lt;/h1&gt;" style="rounded=0;whiteSpace=wrap;html=1;" parent="1" vertex="1">
                    <mxGeometry x="860" y="500" width="200" height="60" as="geometry"/>
                </mxCell>
                <mxCell id="hY3pxkbxS_bQR6AZCW12-108" value="" style="shape=table;startSize=0;container=1;collapsible=0;childLayout=tableLayout;fontSize=16;" parent="1" vertex="1">
                    <mxGeometry x="810" y="575" width="320" height="70" as="geometry"/>
                </mxCell>
                <mxCell id="hY3pxkbxS_bQR6AZCW12-109" value="" style="shape=tableRow;horizontal=0;startSize=0;swimlaneHead=0;swimlaneBody=0;strokeColor=inherit;top=0;left=0;bottom=0;right=0;collapsible=0;dropTarget=0;fillColor=none;points=[[0,0.5],[1,0.5]];portConstraint=eastwest;fontSize=16;" parent="hY3pxkbxS_bQR6AZCW12-108" vertex="1">
                    <mxGeometry width="320" height="30" as="geometry"/>
                </mxCell>
                <mxCell id="hY3pxkbxS_bQR6AZCW12-110" value="&lt;font style=&quot;font-size: 10px;&quot;&gt;Vendor service&lt;/font&gt;" style="shape=partialRectangle;html=1;whiteSpace=wrap;connectable=0;strokeColor=inherit;overflow=hidden;fillColor=none;top=0;left=0;bottom=0;right=0;pointerEvents=1;fontSize=16;" parent="hY3pxkbxS_bQR6AZCW12-109" vertex="1">
                    <mxGeometry width="80" height="30" as="geometry">
                        <mxRectangle width="80" height="30" as="alternateBounds"/>
                    </mxGeometry>
                </mxCell>
                <mxCell id="hY3pxkbxS_bQR6AZCW12-111" value="&lt;font size=&quot;1&quot;&gt;rating&lt;/font&gt;" style="shape=partialRectangle;html=1;whiteSpace=wrap;connectable=0;strokeColor=inherit;overflow=hidden;fillColor=none;top=0;left=0;bottom=0;right=0;pointerEvents=1;fontSize=16;" parent="hY3pxkbxS_bQR6AZCW12-109" vertex="1">
                    <mxGeometry x="80" width="80" height="30" as="geometry">
                        <mxRectangle width="80" height="30" as="alternateBounds"/>
                    </mxGeometry>
                </mxCell>
                <mxCell id="hY3pxkbxS_bQR6AZCW12-112" value="&lt;font style=&quot;font-size: 10px;&quot;&gt;relative distance&lt;/font&gt;" style="shape=partialRectangle;html=1;whiteSpace=wrap;connectable=0;strokeColor=inherit;overflow=hidden;fillColor=none;top=0;left=0;bottom=0;right=0;pointerEvents=1;fontSize=16;" parent="hY3pxkbxS_bQR6AZCW12-109" vertex="1">
                    <mxGeometry x="160" width="80" height="30" as="geometry">
                        <mxRectangle width="80" height="30" as="alternateBounds"/>
                    </mxGeometry>
                </mxCell>
                <mxCell id="hY3pxkbxS_bQR6AZCW12-113" value="Address" style="shape=partialRectangle;html=1;whiteSpace=wrap;connectable=0;strokeColor=inherit;overflow=hidden;fillColor=none;top=0;left=0;bottom=0;right=0;pointerEvents=1;fontSize=16;" parent="hY3pxkbxS_bQR6AZCW12-109" vertex="1">
                    <mxGeometry x="240" width="80" height="30" as="geometry">
                        <mxRectangle width="80" height="30" as="alternateBounds"/>
                    </mxGeometry>
                </mxCell>
                <mxCell id="hY3pxkbxS_bQR6AZCW12-115" style="shape=tableRow;horizontal=0;startSize=0;swimlaneHead=0;swimlaneBody=0;strokeColor=inherit;top=0;left=0;bottom=0;right=0;collapsible=0;dropTarget=0;fillColor=none;points=[[0,0.5],[1,0.5]];portConstraint=eastwest;fontSize=16;" parent="hY3pxkbxS_bQR6AZCW12-108" vertex="1">
                    <mxGeometry y="30" width="320" height="40" as="geometry"/>
                </mxCell>
                <mxCell id="hY3pxkbxS_bQR6AZCW12-116" value="photos" style="shape=partialRectangle;html=1;whiteSpace=wrap;connectable=0;strokeColor=inherit;overflow=hidden;fillColor=none;top=0;left=0;bottom=0;right=0;pointerEvents=1;fontSize=16;" parent="hY3pxkbxS_bQR6AZCW12-115" vertex="1">
                    <mxGeometry width="80" height="40" as="geometry">
                        <mxRectangle width="80" height="40" as="alternateBounds"/>
                    </mxGeometry>
                </mxCell>
                <mxCell id="hY3pxkbxS_bQR6AZCW12-117" value="whatsapp" style="shape=partialRectangle;html=1;whiteSpace=wrap;connectable=0;strokeColor=inherit;overflow=hidden;fillColor=none;top=0;left=0;bottom=0;right=0;pointerEvents=1;fontSize=16;" parent="hY3pxkbxS_bQR6AZCW12-115" vertex="1">
                    <mxGeometry x="80" width="80" height="40" as="geometry">
                        <mxRectangle width="80" height="40" as="alternateBounds"/>
                    </mxGeometry>
                </mxCell>
                <mxCell id="hY3pxkbxS_bQR6AZCW12-118" value="phone" style="shape=partialRectangle;html=1;whiteSpace=wrap;connectable=0;strokeColor=inherit;overflow=hidden;fillColor=none;top=0;left=0;bottom=0;right=0;pointerEvents=1;fontSize=16;" parent="hY3pxkbxS_bQR6AZCW12-115" vertex="1">
                    <mxGeometry x="160" width="80" height="40" as="geometry">
                        <mxRectangle width="80" height="40" as="alternateBounds"/>
                    </mxGeometry>
                </mxCell>
                <mxCell id="hY3pxkbxS_bQR6AZCW12-119" style="shape=partialRectangle;html=1;whiteSpace=wrap;connectable=0;strokeColor=inherit;overflow=hidden;fillColor=none;top=0;left=0;bottom=0;right=0;pointerEvents=1;fontSize=16;" parent="hY3pxkbxS_bQR6AZCW12-115" vertex="1">
                    <mxGeometry x="240" width="80" height="40" as="geometry">
                        <mxRectangle width="80" height="40" as="alternateBounds"/>
                    </mxGeometry>
                </mxCell>
                <mxCell id="Dx2BUCvLWsKzCXqUlLw3-1" value="&lt;font style=&quot;font-size: 8px;&quot;&gt;Plumber&lt;/font&gt;" style="whiteSpace=wrap;html=1;aspect=fixed;" parent="1" vertex="1">
                    <mxGeometry x="-10" y="660" width="40" height="40" as="geometry"/>
                </mxCell>
                <mxCell id="Dx2BUCvLWsKzCXqUlLw3-2" value="&lt;font style=&quot;font-size: 8px;&quot;&gt;Electrician&lt;/font&gt;" style="whiteSpace=wrap;html=1;aspect=fixed;" parent="1" vertex="1">
                    <mxGeometry x="50" y="660" width="40" height="40" as="geometry"/>
                </mxCell>
                <mxCell id="Dx2BUCvLWsKzCXqUlLw3-3" value="&lt;ol&gt;&lt;li&gt;&lt;font&gt;Shaving&lt;/font&gt;&lt;/li&gt;&lt;li&gt;&lt;font&gt;Haircut&lt;/font&gt;&lt;/li&gt;&lt;li&gt;&lt;font&gt;face massage&lt;/font&gt;&lt;/li&gt;&lt;/ol&gt;" style="rounded=0;whiteSpace=wrap;html=1;align=left;" parent="1" vertex="1">
                    <mxGeometry x="810" y="660" width="120" height="60" as="geometry"/>
                </mxCell>
                <mxCell id="zxe9tG6tnXQUL3xIdXfx-3" style="edgeStyle=orthogonalEdgeStyle;rounded=0;orthogonalLoop=1;jettySize=auto;html=1;exitX=1;exitY=1;exitDx=0;exitDy=-15;exitPerimeter=0;" parent="1" source="Dx2BUCvLWsKzCXqUlLw3-4" edge="1">
                    <mxGeometry relative="1" as="geometry">
                        <mxPoint x="960" y="470" as="targetPoint"/>
                    </mxGeometry>
                </mxCell>
                <mxCell id="Dx2BUCvLWsKzCXqUlLw3-4" value="for vendor data" style="shape=cylinder3;whiteSpace=wrap;html=1;boundedLbl=1;backgroundOutline=1;size=15;" parent="1" vertex="1">
                    <mxGeometry x="880" y="270" width="60" height="100" as="geometry"/>
                </mxCell>
                <mxCell id="Dx2BUCvLWsKzCXqUlLw3-5" value="&lt;font size=&quot;1&quot;&gt;customer uid+ vendor uid+ vendorbillno&lt;/font&gt;" style="rounded=0;whiteSpace=wrap;html=1;" parent="1" vertex="1">
                    <mxGeometry x="1580" y="500" width="170" height="25" as="geometry"/>
                </mxCell>
                <mxCell id="Dx2BUCvLWsKzCXqUlLw3-7" value="Appointment + billing" style="shape=cylinder3;whiteSpace=wrap;html=1;boundedLbl=1;backgroundOutline=1;size=15;" parent="1" vertex="1">
                    <mxGeometry x="1300" y="290" width="90" height="100" as="geometry"/>
                </mxCell>
                <mxCell id="Dx2BUCvLWsKzCXqUlLw3-26" style="edgeStyle=orthogonalEdgeStyle;rounded=0;orthogonalLoop=1;jettySize=auto;html=1;exitX=0.75;exitY=1;exitDx=0;exitDy=0;" parent="1" source="Dx2BUCvLWsKzCXqUlLw3-9" target="Dx2BUCvLWsKzCXqUlLw3-6" edge="1">
                    <mxGeometry relative="1" as="geometry"/>
                </mxCell>
                <mxCell id="Dx2BUCvLWsKzCXqUlLw3-9" value="&lt;br&gt;&lt;div&gt;&lt;br&gt;&lt;/div&gt;" style="rounded=0;whiteSpace=wrap;html=1;align=left;" parent="1" vertex="1">
                    <mxGeometry x="1155" width="415" height="240" as="geometry"/>
                </mxCell>
                <mxCell id="Dx2BUCvLWsKzCXqUlLw3-11" value="" style="endArrow=none;dashed=1;html=1;dashPattern=1 3;strokeWidth=2;rounded=0;" parent="1" edge="1">
                    <mxGeometry width="50" height="50" relative="1" as="geometry">
                        <mxPoint x="1340" y="290" as="sourcePoint"/>
                        <mxPoint x="1350" y="250" as="targetPoint"/>
                        <Array as="points">
                            <mxPoint x="1340" y="270"/>
                        </Array>
                    </mxGeometry>
                </mxCell>
                <mxCell id="Dx2BUCvLWsKzCXqUlLw3-12" value="&lt;div style=&quot;line-height: 70%;&quot;&gt;&lt;font style=&quot;font-size: 7px; line-height: 70%;&quot;&gt;{&lt;/font&gt;&lt;div&gt;&lt;font style=&quot;font-size: 7px; line-height: 70%;&quot;&gt;&amp;nbsp; &amp;nbsp; &amp;nbsp;&amp;nbsp;&lt;/font&gt;&lt;span style=&quot;font-size: 7px; background-color: transparent; color: light-dark(rgb(0, 0, 0), rgb(255, 255, 255)); line-height: 70%;&quot;&gt;&amp;nbsp;1v1c1:&amp;nbsp;&lt;/span&gt;&lt;span style=&quot;background-color: transparent; color: light-dark(rgb(0, 0, 0), rgb(255, 255, 255)); font-size: 7px;&quot;&gt;{&lt;/span&gt;&lt;/div&gt;&lt;div&gt;&lt;font style=&quot;font-size: 7px; line-height: 70%;&quot;&gt;&amp;nbsp; &amp;nbsp; &amp;nbsp; &amp;nbsp; &amp;nbsp; &amp;nbsp; &amp;nbsp; &amp;nbsp;&#39;vendor id&#39; : 01,&lt;/font&gt;&lt;/div&gt;&lt;div&gt;&lt;font style=&quot;font-size: 7px; line-height: 70%;&quot;&gt;&amp;nbsp; &amp;nbsp; &amp;nbsp; &amp;nbsp; &amp;nbsp; &amp;nbsp; &amp;nbsp; &amp;nbsp;&#39;customer id&#39; :&amp;nbsp; 01,&lt;/font&gt;&lt;span style=&quot;font-size: 7px; background-color: transparent; color: light-dark(rgb(0, 0, 0), rgb(255, 255, 255));&quot;&gt;&amp;nbsp; &amp;nbsp;&lt;/span&gt;&lt;/div&gt;&lt;div&gt;&lt;span style=&quot;font-size: 7px; background-color: transparent; color: light-dark(rgb(0, 0, 0), rgb(255, 255, 255));&quot;&gt;&amp;nbsp; &amp;nbsp; &amp;nbsp; &amp;nbsp; &amp;nbsp; &amp;nbsp; &amp;nbsp; &amp;nbsp;&#39;Appointement type&#39;: 1&lt;/span&gt;&lt;/div&gt;&lt;div&gt;&lt;font style=&quot;font-size: 7px; line-height: 70%;&quot;&gt;&amp;nbsp; &amp;nbsp; &amp;nbsp; &amp;nbsp; &amp;nbsp; &amp;nbsp; &amp;nbsp; &amp;nbsp;&#39;services&#39;:&amp;nbsp;&lt;/font&gt;&lt;/div&gt;&lt;/div&gt;&lt;blockquote style=&quot;margin: 0 0 0 40px; border: none; padding: 0px;&quot;&gt;&lt;div style=&quot;line-height: 70%;&quot;&gt;&lt;div&gt;&lt;font style=&quot;font-size: 7px; line-height: 70%;&quot;&gt;&amp;nbsp; &amp;nbsp; &amp;nbsp; &amp;nbsp; &amp;nbsp; {&amp;nbsp;&lt;/font&gt;&lt;/div&gt;&lt;/div&gt;&lt;div style=&quot;line-height: 70%;&quot;&gt;&lt;div&gt;&lt;font style=&quot;font-size: 7px; line-height: 70%;&quot;&gt;&amp;nbsp; &amp;nbsp; &amp;nbsp; &amp;nbsp; &amp;nbsp; &amp;nbsp; &amp;nbsp;haircut: 200,&lt;/font&gt;&lt;/div&gt;&lt;/div&gt;&lt;div style=&quot;line-height: 70%;&quot;&gt;&lt;div&gt;&lt;font style=&quot;font-size: 7px; line-height: 70%;&quot;&gt;&amp;nbsp; &amp;nbsp; &amp;nbsp; &amp;nbsp; &amp;nbsp; &amp;nbsp; &amp;nbsp; shaving:300,&lt;/font&gt;&lt;/div&gt;&lt;/div&gt;&lt;div style=&quot;line-height: 70%;&quot;&gt;&lt;div&gt;&lt;font style=&quot;font-size: 7px; line-height: 70%;&quot;&gt;&amp;nbsp; &amp;nbsp; &amp;nbsp; &amp;nbsp; &amp;nbsp; &amp;nbsp;}&lt;/font&gt;&lt;/div&gt;&lt;/div&gt;&lt;/blockquote&gt;&lt;div style=&quot;line-height: 70%;&quot;&gt;&lt;div&gt;&lt;font style=&quot;font-size: 7px; line-height: 70%;&quot;&gt;&amp;nbsp; &amp;nbsp; &amp;nbsp; &amp;nbsp;}&lt;/font&gt;&lt;/div&gt;&lt;div&gt;&lt;font style=&quot;font-size: 7px; line-height: 70%;&quot;&gt;&lt;br&gt;&lt;/font&gt;&lt;/div&gt;&lt;div&gt;&lt;font style=&quot;font-size: 7px; line-height: 70%;&quot;&gt;&lt;div style=&quot;font-size: 12px; line-height: 8.4px;&quot;&gt;&lt;div&gt;&lt;font style=&quot;font-size: 7px; line-height: 4.9px;&quot;&gt;&amp;nbsp;&lt;/font&gt;&lt;span style=&quot;font-size: 7px; background-color: transparent; color: light-dark(rgb(0, 0, 0), rgb(255, 255, 255)); line-height: 4.9px;&quot;&gt;&amp;nbsp;2c3v1:&amp;nbsp;&lt;/span&gt;&lt;span style=&quot;background-color: transparent; color: light-dark(rgb(0, 0, 0), rgb(255, 255, 255)); font-size: 7px;&quot;&gt;{&lt;/span&gt;&lt;/div&gt;&lt;div&gt;&lt;font style=&quot;font-size: 7px; line-height: 4.9px;&quot;&gt;&amp;nbsp; &amp;nbsp; &amp;nbsp; &amp;nbsp; &amp;nbsp; &amp;nbsp; &amp;nbsp; &amp;nbsp;&#39;vendor id&#39; : 02,&lt;/font&gt;&lt;/div&gt;&lt;div&gt;&lt;font style=&quot;font-size: 7px; line-height: 4.9px;&quot;&gt;&amp;nbsp; &amp;nbsp; &amp;nbsp; &amp;nbsp; &amp;nbsp; &amp;nbsp; &amp;nbsp; &amp;nbsp;&#39;customer id&#39; :&amp;nbsp; 03,&lt;/font&gt;&lt;span style=&quot;font-size: 7px; background-color: transparent; color: light-dark(rgb(0, 0, 0), rgb(255, 255, 255));&quot;&gt;&amp;nbsp; &amp;nbsp;&lt;/span&gt;&lt;/div&gt;&lt;div&gt;&lt;span style=&quot;font-size: 7px; background-color: transparent; color: light-dark(rgb(0, 0, 0), rgb(255, 255, 255));&quot;&gt;&amp;nbsp; &amp;nbsp; &amp;nbsp; &amp;nbsp; &amp;nbsp; &amp;nbsp; &amp;nbsp; &amp;nbsp;&#39;Appointement type&#39;: 1&lt;/span&gt;&lt;/div&gt;&lt;div&gt;&lt;font style=&quot;font-size: 7px; line-height: 4.9px;&quot;&gt;&amp;nbsp; &amp;nbsp; &amp;nbsp; &amp;nbsp; &amp;nbsp; &amp;nbsp; &amp;nbsp; &amp;nbsp;&#39;services&#39;:&amp;nbsp;&lt;/font&gt;&lt;/div&gt;&lt;/div&gt;&lt;blockquote style=&quot;font-size: 12px; margin: 0px 0px 0px 40px; border: none; padding: 0px;&quot;&gt;&lt;div style=&quot;line-height: 8.4px;&quot;&gt;&lt;font style=&quot;font-size: 7px; line-height: 4.9px;&quot;&gt;&amp;nbsp; &amp;nbsp; &amp;nbsp; &amp;nbsp; &amp;nbsp; {&amp;nbsp;&lt;/font&gt;&lt;/div&gt;&lt;div style=&quot;line-height: 8.4px;&quot;&gt;&lt;font style=&quot;font-size: 7px; line-height: 4.9px;&quot;&gt;&amp;nbsp; &amp;nbsp; &amp;nbsp; &amp;nbsp; &amp;nbsp; &amp;nbsp; &amp;nbsp;haircut: 200,&lt;/font&gt;&lt;/div&gt;&lt;div style=&quot;line-height: 8.4px;&quot;&gt;&lt;font style=&quot;font-size: 7px; line-height: 4.9px;&quot;&gt;&amp;nbsp; &amp;nbsp; &amp;nbsp; &amp;nbsp; &amp;nbsp; &amp;nbsp; &amp;nbsp; shaving:300,&lt;/font&gt;&lt;/div&gt;&lt;div style=&quot;line-height: 8.4px;&quot;&gt;&lt;font style=&quot;font-size: 7px; line-height: 4.9px;&quot;&gt;&amp;nbsp; &amp;nbsp; &amp;nbsp; &amp;nbsp; &amp;nbsp; &amp;nbsp;}&lt;/font&gt;&lt;/div&gt;&lt;/blockquote&gt;&lt;div style=&quot;font-size: 12px; line-height: 8.4px;&quot;&gt;&lt;font style=&quot;font-size: 7px; line-height: 4.9px;&quot;&gt;&amp;nbsp; &amp;nbsp; &amp;nbsp; &amp;nbsp;}&lt;/font&gt;&lt;/div&gt;&lt;/font&gt;&lt;div&gt;&lt;font style=&quot;font-size: 7px; line-height: 70%;&quot;&gt;}&lt;/font&gt;&lt;/div&gt;&lt;/div&gt;&lt;/div&gt;" style="text;html=1;align=left;verticalAlign=top;whiteSpace=wrap;rounded=0;" parent="1" vertex="1">
                    <mxGeometry x="1170" y="15" width="340" height="195" as="geometry"/>
                </mxCell>
                <mxCell id="Dx2BUCvLWsKzCXqUlLw3-13" value="" style="endArrow=classic;html=1;rounded=0;exitX=0.029;exitY=0.128;exitDx=0;exitDy=0;exitPerimeter=0;" parent="1" source="Dx2BUCvLWsKzCXqUlLw3-12" target="Dx2BUCvLWsKzCXqUlLw3-14" edge="1">
                    <mxGeometry width="50" height="50" relative="1" as="geometry">
                        <mxPoint x="1150" y="110" as="sourcePoint"/>
                        <mxPoint x="1090" y="50" as="targetPoint"/>
                        <Array as="points">
                            <mxPoint x="1110" y="20"/>
                        </Array>
                    </mxGeometry>
                </mxCell>
                <mxCell id="Dx2BUCvLWsKzCXqUlLw3-14" value="&lt;span style=&quot;color: rgb(255, 255, 255); font-family: Helvetica; font-size: 7px; font-style: normal; font-variant-ligatures: normal; font-variant-caps: normal; font-weight: 400; letter-spacing: normal; orphans: 2; text-align: left; text-indent: 0px; text-transform: none; widows: 2; word-spacing: 0px; -webkit-text-stroke-width: 0px; white-space: normal; background-color: rgb(27, 29, 30); text-decoration-thickness: initial; text-decoration-style: initial; text-decoration-color: initial; display: inline !important; float: none;&quot;&gt;&amp;nbsp;appointment id =&amp;nbsp; vendorid+&#39;v&#39;+customerid+&#39;c&#39;+billno&amp;nbsp;&lt;/span&gt;" style="text;whiteSpace=wrap;html=1;" parent="1" vertex="1">
                    <mxGeometry x="920" y="-25" width="180" height="40" as="geometry"/>
                </mxCell>
                <mxCell id="Dx2BUCvLWsKzCXqUlLw3-18" style="edgeStyle=orthogonalEdgeStyle;rounded=0;orthogonalLoop=1;jettySize=auto;html=1;exitX=0.75;exitY=0;exitDx=0;exitDy=0;" parent="1" source="Dx2BUCvLWsKzCXqUlLw3-16" edge="1">
                    <mxGeometry relative="1" as="geometry">
                        <mxPoint x="1390.230769230769" y="479.6923076923076" as="targetPoint"/>
                    </mxGeometry>
                </mxCell>
                <mxCell id="Dx2BUCvLWsKzCXqUlLw3-19" style="edgeStyle=orthogonalEdgeStyle;rounded=0;orthogonalLoop=1;jettySize=auto;html=1;exitX=0.5;exitY=0;exitDx=0;exitDy=0;" parent="1" source="Dx2BUCvLWsKzCXqUlLw3-16" edge="1">
                    <mxGeometry relative="1" as="geometry">
                        <mxPoint x="1330.230769230769" y="400" as="targetPoint"/>
                    </mxGeometry>
                </mxCell>
                <mxCell id="Dx2BUCvLWsKzCXqUlLw3-16" value="customer id: DB1&lt;div&gt;&amp;nbsp;vendor id: DB1&lt;/div&gt;&lt;div&gt;booked on: date and time function&lt;/div&gt;&lt;div&gt;&lt;br&gt;&lt;/div&gt;&lt;div&gt;apponitment time: ______&lt;/div&gt;&lt;div&gt;appointment date: ______&lt;br&gt;Services:_____&lt;/div&gt;&lt;div&gt;payment method:__cash___&lt;/div&gt;&lt;div&gt;&lt;br&gt;&lt;/div&gt;" style="rounded=0;whiteSpace=wrap;html=1;" parent="1" vertex="1">
                    <mxGeometry x="1210" y="480" width="240" height="260" as="geometry"/>
                </mxCell>
                <mxCell id="Dx2BUCvLWsKzCXqUlLw3-22" value="vendor id" style="text;html=1;align=center;verticalAlign=middle;resizable=0;points=[];autosize=1;strokeColor=none;fillColor=none;" parent="1" vertex="1">
                    <mxGeometry x="680" y="340" width="70" height="30" as="geometry"/>
                </mxCell>
                <mxCell id="Dx2BUCvLWsKzCXqUlLw3-23" value="NoSQL DB" style="text;html=1;align=center;verticalAlign=middle;resizable=0;points=[];autosize=1;strokeColor=none;fillColor=none;" parent="1" vertex="1">
                    <mxGeometry x="870" y="370" width="80" height="30" as="geometry"/>
                </mxCell>
                <mxCell id="Dx2BUCvLWsKzCXqUlLw3-24" value="NoSQL DB" style="text;html=1;align=center;verticalAlign=middle;resizable=0;points=[];autosize=1;strokeColor=none;fillColor=none;" parent="1" vertex="1">
                    <mxGeometry x="1340" y="390" width="80" height="30" as="geometry"/>
                </mxCell>
                <mxCell id="Dx2BUCvLWsKzCXqUlLw3-27" value="&lt;span style=&quot;font-size: 6px; background-color: transparent; color: light-dark(rgb(0, 0, 0), rgb(255, 255, 255));&quot;&gt;dict[vendot id]&amp;nbsp; = vendor id&lt;/span&gt;" style="text;html=1;align=center;verticalAlign=middle;whiteSpace=wrap;rounded=0;" parent="1" vertex="1">
                    <mxGeometry x="1315" y="50" width="115" height="30" as="geometry"/>
                </mxCell>
                <mxCell id="Dx2BUCvLWsKzCXqUlLw3-28" value="STEP 1: Creating the databases&lt;div&gt;STEP 2: Creating the routes (api)&lt;/div&gt;&lt;div&gt;STEP 3: Web pages (utilising routes)&lt;br&gt;&lt;div style=&quot;&quot;&gt;STEP 4: UI&lt;/div&gt;&lt;/div&gt;" style="rounded=0;whiteSpace=wrap;html=1;align=left;" parent="1" vertex="1">
                    <mxGeometry x="150" y="850" width="220" height="60" as="geometry"/>
                </mxCell>
                <mxCell id="Dx2BUCvLWsKzCXqUlLw3-33" style="edgeStyle=orthogonalEdgeStyle;rounded=0;orthogonalLoop=1;jettySize=auto;html=1;" parent="1" source="Dx2BUCvLWsKzCXqUlLw3-30" target="Dx2BUCvLWsKzCXqUlLw3-4" edge="1">
                    <mxGeometry relative="1" as="geometry"/>
                </mxCell>
                <mxCell id="Dx2BUCvLWsKzCXqUlLw3-34" style="edgeStyle=orthogonalEdgeStyle;rounded=0;orthogonalLoop=1;jettySize=auto;html=1;exitX=1;exitY=0.5;exitDx=0;exitDy=0;" parent="1" source="Dx2BUCvLWsKzCXqUlLw3-30" edge="1">
                    <mxGeometry relative="1" as="geometry">
                        <mxPoint x="830" y="140.20000000000005" as="targetPoint"/>
                    </mxGeometry>
                </mxCell>
                <mxCell id="Dx2BUCvLWsKzCXqUlLw3-36" value="" style="edgeStyle=orthogonalEdgeStyle;rounded=0;orthogonalLoop=1;jettySize=auto;html=1;" parent="1" source="Dx2BUCvLWsKzCXqUlLw3-30" target="Dx2BUCvLWsKzCXqUlLw3-35" edge="1">
                    <mxGeometry relative="1" as="geometry"/>
                </mxCell>
                <mxCell id="Dx2BUCvLWsKzCXqUlLw3-30" value="Photos&lt;div&gt;Services&lt;/div&gt;&lt;div&gt;address etc&lt;/div&gt;" style="rounded=0;whiteSpace=wrap;html=1;" parent="1" vertex="1">
                    <mxGeometry x="670" y="35" width="150" height="210" as="geometry"/>
                </mxCell>
                <mxCell id="Dx2BUCvLWsKzCXqUlLw3-32" value="Business Details" style="text;html=1;align=center;verticalAlign=middle;whiteSpace=wrap;rounded=0;" parent="1" vertex="1">
                    <mxGeometry x="715" y="50" width="60" height="30" as="geometry"/>
                </mxCell>
                <mxCell id="Dx2BUCvLWsKzCXqUlLw3-35" value="" style="rounded=0;whiteSpace=wrap;html=1;" parent="1" vertex="1">
                    <mxGeometry x="590" y="-255" width="320" height="210" as="geometry"/>
                </mxCell>
                <mxCell id="Dx2BUCvLWsKzCXqUlLw3-37" value="Vendor dashboard" style="text;html=1;align=center;verticalAlign=middle;whiteSpace=wrap;rounded=0;" parent="1" vertex="1">
                    <mxGeometry x="690" y="-250" width="120" height="30" as="geometry"/>
                </mxCell>
                <mxCell id="Dx2BUCvLWsKzCXqUlLw3-39" value="Edit details" style="rounded=0;whiteSpace=wrap;html=1;" parent="1" vertex="1">
                    <mxGeometry x="610" y="-210" width="85" height="20" as="geometry"/>
                </mxCell>
                <mxCell id="Dx2BUCvLWsKzCXqUlLw3-40" value="See analytics" style="rounded=0;whiteSpace=wrap;html=1;" parent="1" vertex="1">
                    <mxGeometry x="610" y="-170" width="85" height="20" as="geometry"/>
                </mxCell>
                <mxCell id="Dx2BUCvLWsKzCXqUlLw3-41" value="See appointments" style="rounded=0;whiteSpace=wrap;html=1;" parent="1" vertex="1">
                    <mxGeometry x="770" y="-210" width="100" height="30" as="geometry"/>
                </mxCell>
                <mxCell id="Dx2BUCvLWsKzCXqUlLw3-47" value="" style="edgeStyle=orthogonalEdgeStyle;rounded=0;orthogonalLoop=1;jettySize=auto;html=1;" parent="1" source="Dx2BUCvLWsKzCXqUlLw3-45" target="Dx2BUCvLWsKzCXqUlLw3-46" edge="1">
                    <mxGeometry relative="1" as="geometry"/>
                </mxCell>
                <mxCell id="Dx2BUCvLWsKzCXqUlLw3-45" value="&amp;nbsp;Appointments&amp;nbsp;" style="rounded=0;whiteSpace=wrap;html=1;" parent="1" vertex="1">
                    <mxGeometry x="770" y="-170" width="100" height="30" as="geometry"/>
                </mxCell>
                <mxCell id="Dx2BUCvLWsKzCXqUlLw3-46" value="Time slots, no of free" style="whiteSpace=wrap;html=1;rounded=0;" parent="1" vertex="1">
                    <mxGeometry x="940" y="-185" width="120" height="60" as="geometry"/>
                </mxCell>
                <mxCell id="zxe9tG6tnXQUL3xIdXfx-12" value="Name&lt;div&gt;Phone no&lt;/div&gt;&lt;div&gt;Address&lt;/div&gt;&lt;div style=&quot;&quot;&gt;Email&lt;/div&gt;&lt;div style=&quot;&quot;&gt;pin code&lt;/div&gt;&lt;div style=&quot;&quot;&gt;vendor type&lt;/div&gt;&lt;div style=&quot;&quot;&gt;registration date&lt;/div&gt;&lt;div style=&quot;&quot;&gt;total booking =0&lt;/div&gt;" style="text;html=1;align=left;verticalAlign=middle;resizable=0;points=[];autosize=1;strokeColor=none;fillColor=none;" parent="1" vertex="1">
                    <mxGeometry x="-755" y="-222" width="110" height="130" as="geometry"/>
                </mxCell>
                <mxCell id="zxe9tG6tnXQUL3xIdXfx-13" value="Name&lt;div&gt;Phone no&lt;/div&gt;&lt;div&gt;Address&lt;/div&gt;&lt;div style=&quot;&quot;&gt;Email&lt;/div&gt;&lt;div style=&quot;&quot;&gt;address/current location&lt;/div&gt;&lt;div style=&quot;&quot;&gt;cutomer registration date&lt;/div&gt;&lt;div style=&quot;&quot;&gt;&lt;br&gt;&lt;/div&gt;" style="text;html=1;align=left;verticalAlign=middle;resizable=0;points=[];autosize=1;strokeColor=none;fillColor=none;" parent="1" vertex="1">
                    <mxGeometry x="-645" y="-215" width="160" height="110" as="geometry"/>
                </mxCell>
                <mxCell id="zxe9tG6tnXQUL3xIdXfx-14" value="Vendor Sql" style="text;html=1;align=center;verticalAlign=middle;whiteSpace=wrap;rounded=0;" parent="1" vertex="1">
                    <mxGeometry x="-790" y="-255" width="100" height="30" as="geometry"/>
                </mxCell>
                <mxCell id="zxe9tG6tnXQUL3xIdXfx-15" value="Customer Sql" style="text;html=1;align=center;verticalAlign=middle;whiteSpace=wrap;rounded=0;" parent="1" vertex="1">
                    <mxGeometry x="-660" y="-255" width="100" height="30" as="geometry"/>
                </mxCell>
                <mxCell id="3" style="edgeStyle=none;html=1;" parent="1" source="2" edge="1">
                    <mxGeometry relative="1" as="geometry">
                        <mxPoint x="-30" y="540.0000000000002" as="targetPoint"/>
                    </mxGeometry>
                </mxCell>
                <mxCell id="2" value="Customer Sign up" style="rounded=0;whiteSpace=wrap;html=1;" parent="1" vertex="1">
                    <mxGeometry x="-90" y="295" width="120" height="155" as="geometry"/>
                </mxCell>
                <mxCell id="4" value="&lt;font style=&quot;font-size: 7px;&quot;&gt;Login&lt;/font&gt;" style="rounded=0;whiteSpace=wrap;html=1;" parent="1" vertex="1">
                    <mxGeometry x="130" y="700" width="40" height="10" as="geometry"/>
                </mxCell>
                <mxCell id="9" style="edgeStyle=orthogonalEdgeStyle;html=1;exitX=1;exitY=0.5;exitDx=0;exitDy=0;entryX=0;entryY=0.462;entryDx=0;entryDy=0;entryPerimeter=0;" parent="1" source="7" target="Dx2BUCvLWsKzCXqUlLw3-16" edge="1">
                    <mxGeometry relative="1" as="geometry"/>
                </mxCell>
                <mxCell id="7" value="Book Appointment" style="rounded=0;whiteSpace=wrap;html=1;" parent="1" vertex="1">
                    <mxGeometry x="1050" y="680" width="90" height="40" as="geometry"/>
                </mxCell>
                <mxCell id="10" value="&lt;font style=&quot;font-size: 7px;&quot;&gt;Confirmed Booking&lt;/font&gt;" style="rounded=0;whiteSpace=wrap;html=1;" parent="1" vertex="1">
                    <mxGeometry x="1295" y="430" width="85" height="20" as="geometry"/>
                </mxCell>
            </root>
        </mxGraphModel>
    </diagram>
</mxfile>